<mxfile host="app.diagrams.net" modified="2021-08-12T07:54:16.129Z" agent="5.0 (Windows NT 10.0; Win64; x64) AppleWebKit/537.36 (KHTML, like Gecko) Chrome/92.0.4515.131 Safari/537.36" etag="NG0-cOo7Nj9Vd36j4Q9O" version="14.8.1" type="github">
  <diagram id="wVwWwBwayWcqCYF1YTvv" name="Page-1">
    <mxGraphModel dx="2249" dy="1912" grid="1" gridSize="10" guides="1" tooltips="1" connect="1" arrows="1" fold="1" page="1" pageScale="1" pageWidth="827" pageHeight="1169" math="0" shadow="0">
      <root>
        <mxCell id="0" />
        <mxCell id="1" parent="0" />
        <mxCell id="hoE9Ba28Qd1cUVJFHFKM-4" value="" style="rounded=0;whiteSpace=wrap;html=1;fontStyle=1;fillColor=#dae8fc;strokeColor=#6c8ebf;fontSize=20;align=left;" vertex="1" parent="1">
          <mxGeometry x="-10" y="-60" width="660" height="400" as="geometry" />
        </mxCell>
        <mxCell id="hoE9Ba28Qd1cUVJFHFKM-10" value="GIS" style="rounded=0;whiteSpace=wrap;html=1;fontSize=20;fontStyle=1;fillColor=#ffe6cc;strokeColor=#d79b00;" vertex="1" parent="1">
          <mxGeometry x="225" y="-40" width="190" height="40" as="geometry" />
        </mxCell>
        <mxCell id="hoE9Ba28Qd1cUVJFHFKM-20" value="&lt;b&gt;Times&lt;/b&gt;" style="rounded=0;whiteSpace=wrap;html=1;fontSize=20;fillColor=#ffe6cc;strokeColor=#d79b00;" vertex="1" parent="1">
          <mxGeometry x="260" y="100" width="120" height="60" as="geometry" />
        </mxCell>
        <mxCell id="hoE9Ba28Qd1cUVJFHFKM-21" value="&lt;b&gt;Elevations&lt;/b&gt;" style="rounded=0;whiteSpace=wrap;html=1;fontSize=20;fillColor=#ffe6cc;strokeColor=#d79b00;" vertex="1" parent="1">
          <mxGeometry x="260" y="180" width="120" height="60" as="geometry" />
        </mxCell>
        <mxCell id="hoE9Ba28Qd1cUVJFHFKM-22" value="&lt;b&gt;Coords.&lt;/b&gt;" style="rounded=0;whiteSpace=wrap;html=1;fontSize=20;fillColor=#ffe6cc;strokeColor=#d79b00;" vertex="1" parent="1">
          <mxGeometry x="260" y="20" width="120" height="60" as="geometry" />
        </mxCell>
        <mxCell id="hoE9Ba28Qd1cUVJFHFKM-24" value="Weather" style="rounded=0;whiteSpace=wrap;html=1;fontSize=20;fontStyle=1;fillColor=#fff2cc;strokeColor=#d6b656;" vertex="1" parent="1">
          <mxGeometry x="440" y="-40" width="190" height="40" as="geometry" />
        </mxCell>
        <mxCell id="hoE9Ba28Qd1cUVJFHFKM-25" value="&lt;b&gt;Gradients&lt;/b&gt;" style="rounded=0;whiteSpace=wrap;html=1;fontSize=20;fillColor=#ffe6cc;strokeColor=#d79b00;" vertex="1" parent="1">
          <mxGeometry x="260" y="260" width="120" height="60" as="geometry" />
        </mxCell>
        <mxCell id="hoE9Ba28Qd1cUVJFHFKM-26" value="&lt;b&gt;Solar&lt;/b&gt;" style="rounded=0;whiteSpace=wrap;html=1;fontSize=20;fillColor=#fff2cc;strokeColor=#d6b656;" vertex="1" parent="1">
          <mxGeometry x="475" y="100" width="120" height="60" as="geometry" />
        </mxCell>
        <mxCell id="hoE9Ba28Qd1cUVJFHFKM-27" value="&lt;b&gt;Wind&lt;/b&gt;" style="rounded=0;whiteSpace=wrap;html=1;fontSize=20;fillColor=#fff2cc;strokeColor=#d6b656;" vertex="1" parent="1">
          <mxGeometry x="475" y="180" width="120" height="60" as="geometry" />
        </mxCell>
        <mxCell id="hoE9Ba28Qd1cUVJFHFKM-28" value="&lt;b&gt;Cloud Cover&lt;/b&gt;" style="rounded=0;whiteSpace=wrap;html=1;fontSize=20;fillColor=#fff2cc;strokeColor=#d6b656;" vertex="1" parent="1">
          <mxGeometry x="475" y="20" width="120" height="60" as="geometry" />
        </mxCell>
        <mxCell id="hoE9Ba28Qd1cUVJFHFKM-40" value="Car Components" style="rounded=0;whiteSpace=wrap;html=1;fontSize=20;fontStyle=1;fillColor=#f5f5f5;strokeColor=#666666;fontColor=#333333;" vertex="1" parent="1">
          <mxGeometry x="10" y="-40" width="190" height="40" as="geometry" />
        </mxCell>
        <mxCell id="hoE9Ba28Qd1cUVJFHFKM-41" value="&lt;b&gt;LVS&lt;/b&gt;" style="rounded=0;whiteSpace=wrap;html=1;fontSize=20;fillColor=#f5f5f5;strokeColor=#666666;fontColor=#333333;" vertex="1" parent="1">
          <mxGeometry x="45" y="100" width="120" height="60" as="geometry" />
        </mxCell>
        <mxCell id="hoE9Ba28Qd1cUVJFHFKM-42" value="&lt;b&gt;Array&lt;/b&gt;" style="rounded=0;whiteSpace=wrap;html=1;fontSize=20;fillColor=#f5f5f5;strokeColor=#666666;fontColor=#333333;" vertex="1" parent="1">
          <mxGeometry x="45" y="180" width="120" height="60" as="geometry" />
        </mxCell>
        <mxCell id="hoE9Ba28Qd1cUVJFHFKM-43" value="&lt;b&gt;Motor&lt;/b&gt;" style="rounded=0;whiteSpace=wrap;html=1;fontSize=20;fillColor=#f5f5f5;strokeColor=#666666;fontColor=#333333;" vertex="1" parent="1">
          <mxGeometry x="45" y="20" width="120" height="60" as="geometry" />
        </mxCell>
      </root>
    </mxGraphModel>
  </diagram>
</mxfile>
